{
	"patcher" : 	{
		"fileversion" : 1,
		"appversion" : 		{
			"major" : 8,
			"minor" : 1,
			"revision" : 8,
			"architecture" : "x64",
			"modernui" : 1
		}
,
		"classnamespace" : "box",
		"rect" : [ 2155.0, 87.0, 1138.0, 858.0 ],
		"bglocked" : 0,
		"openinpresentation" : 0,
		"default_fontsize" : 12.0,
		"default_fontface" : 0,
		"default_fontname" : "Futura",
		"gridonopen" : 1,
		"gridsize" : [ 15.0, 15.0 ],
		"gridsnaponopen" : 1,
		"objectsnaponopen" : 1,
		"statusbarvisible" : 2,
		"toolbarvisible" : 1,
		"lefttoolbarpinned" : 0,
		"toptoolbarpinned" : 0,
		"righttoolbarpinned" : 0,
		"bottomtoolbarpinned" : 0,
		"toolbars_unpinned_last_save" : 0,
		"tallnewobj" : 0,
		"boxanimatetime" : 200,
		"enablehscroll" : 1,
		"enablevscroll" : 1,
		"devicewidth" : 0.0,
		"description" : "",
		"digest" : "",
		"tags" : "",
		"style" : "",
		"subpatcher_template" : "",
		"showrootpatcherontab" : 0,
		"showontab" : 0,
		"assistshowspatchername" : 0,
		"boxes" : [ 			{
				"box" : 				{
					"id" : "obj-30",
					"maxclass" : "newobj",
					"numinlets" : 0,
					"numoutlets" : 0,
					"patcher" : 					{
						"fileversion" : 1,
						"appversion" : 						{
							"major" : 8,
							"minor" : 1,
							"revision" : 8,
							"architecture" : "x64",
							"modernui" : 1
						}
,
						"classnamespace" : "box",
						"rect" : [ 0.0, 26.0, 1138.0, 832.0 ],
						"bglocked" : 0,
						"openinpresentation" : 0,
						"default_fontsize" : 12.0,
						"default_fontface" : 0,
						"default_fontname" : "Arial",
						"gridonopen" : 1,
						"gridsize" : [ 15.0, 15.0 ],
						"gridsnaponopen" : 1,
						"objectsnaponopen" : 1,
						"statusbarvisible" : 2,
						"toolbarvisible" : 1,
						"lefttoolbarpinned" : 0,
						"toptoolbarpinned" : 0,
						"righttoolbarpinned" : 0,
						"bottomtoolbarpinned" : 0,
						"toolbars_unpinned_last_save" : 0,
						"tallnewobj" : 0,
						"boxanimatetime" : 200,
						"enablehscroll" : 1,
						"enablevscroll" : 1,
						"devicewidth" : 0.0,
						"description" : "",
						"digest" : "",
						"tags" : "",
						"style" : "",
						"subpatcher_template" : "",
						"showontab" : 1,
						"assistshowspatchername" : 0,
						"boxes" : [ 							{
								"box" : 								{
									"bubble" : 1,
									"bubbleside" : 2,
									"id" : "obj-25",
									"linecount" : 3,
									"maxclass" : "comment",
									"numinlets" : 1,
									"numoutlets" : 0,
									"patching_rect" : [ 343.5, 130.5, 150.0, 66.0 ],
									"text" : "save messages overwrite a preset with the current patch settings"
								}

							}
, 							{
								"box" : 								{
									"bubble" : 1,
									"bubbleside" : 2,
									"id" : "obj-20",
									"linecount" : 2,
									"maxclass" : "comment",
									"numinlets" : 1,
									"numoutlets" : 0,
									"patching_rect" : [ 79.0, 141.0, 150.0, 52.0 ],
									"text" : "preset message recall a specific preset"
								}

							}
, 							{
								"box" : 								{
									"basictuning" : 440,
									"data" : 									{
										"clips" : [ 											{
												"absolutepath" : "anton.aif",
												"filename" : "anton.aif",
												"filekind" : "audiofile",
												"id" : "u566010311",
												"loop" : 0,
												"content_state" : 												{

												}

											}
 ]
									}
,
									"followglobaltempo" : 0,
									"formantcorrection" : 0,
									"id" : "obj-18",
									"maxclass" : "playlist~",
									"mode" : "basic",
									"numinlets" : 1,
									"numoutlets" : 5,
									"originallength" : [ 0.0, "ticks" ],
									"originaltempo" : 120.0,
									"outlettype" : [ "signal", "signal", "signal", "", "dictionary" ],
									"parameter_enable" : 0,
									"patching_rect" : [ 272.0, 304.0, 150.0, 30.0 ],
									"pitchcorrection" : 0,
									"quality" : "basic",
									"timestretch" : [ 0 ]
								}

							}
, 							{
								"box" : 								{
									"id" : "obj-16",
									"maxclass" : "ezdac~",
									"numinlets" : 2,
									"numoutlets" : 0,
									"patching_rect" : [ 168.5, 397.0, 45.0, 45.0 ]
								}

							}
, 							{
								"box" : 								{
									"id" : "obj-15",
									"maxclass" : "message",
									"numinlets" : 2,
									"numoutlets" : 1,
									"outlettype" : [ "" ],
									"patching_rect" : [ 467.0, 198.0, 44.0, 22.0 ],
									"text" : "save 9"
								}

							}
, 							{
								"box" : 								{
									"id" : "obj-13",
									"maxclass" : "message",
									"numinlets" : 2,
									"numoutlets" : 1,
									"outlettype" : [ "" ],
									"patching_rect" : [ 396.5, 198.0, 44.0, 22.0 ],
									"text" : "save 3"
								}

							}
, 							{
								"box" : 								{
									"id" : "obj-10",
									"maxclass" : "message",
									"numinlets" : 2,
									"numoutlets" : 1,
									"outlettype" : [ "" ],
									"patching_rect" : [ 325.0, 198.0, 44.0, 22.0 ],
									"text" : "save 1"
								}

							}
, 							{
								"box" : 								{
									"id" : "obj-7",
									"maxclass" : "message",
									"numinlets" : 2,
									"numoutlets" : 1,
									"outlettype" : [ "" ],
									"patching_rect" : [ 193.0, 198.0, 52.0, 22.0 ],
									"text" : "preset 9"
								}

							}
, 							{
								"box" : 								{
									"id" : "obj-5",
									"maxclass" : "message",
									"numinlets" : 2,
									"numoutlets" : 1,
									"outlettype" : [ "" ],
									"patching_rect" : [ 128.0, 198.0, 52.0, 22.0 ],
									"text" : "preset 5"
								}

							}
, 							{
								"box" : 								{
									"id" : "obj-3",
									"maxclass" : "message",
									"numinlets" : 2,
									"numoutlets" : 1,
									"outlettype" : [ "" ],
									"patching_rect" : [ 66.0, 198.0, 52.0, 22.0 ],
									"text" : "preset 1"
								}

							}
, 							{
								"box" : 								{
									"id" : "obj-1",
									"maxclass" : "newobj",
									"numinlets" : 2,
									"numoutlets" : 3,
									"outlettype" : [ "signal", "signal", "" ],
									"patching_rect" : [ 168.0, 356.0, 72.0, 22.0 ],
									"text" : "emdm.lazr~",
									"varname" : "emdm.lazr~"
								}

							}
, 							{
								"box" : 								{
									"id" : "obj-26",
									"maxclass" : "comment",
									"numinlets" : 1,
									"numoutlets" : 0,
									"patching_rect" : [ 10.5, 92.0, 430.0, 20.0 ],
									"text" : "lazr~ comes with 9 presets that can be called up or changed if desired"
								}

							}
, 							{
								"box" : 								{
									"id" : "obj-21",
									"maxclass" : "comment",
									"numinlets" : 1,
									"numoutlets" : 0,
									"patching_rect" : [ 10.5, 68.0, 430.0, 20.0 ],
									"text" : "Turns incoming audio signal into a sci-fi laser effect"
								}

							}
, 							{
								"box" : 								{
									"fontname" : "Futura",
									"fontsize" : 36.0,
									"id" : "obj-43",
									"maxclass" : "comment",
									"numinlets" : 1,
									"numoutlets" : 0,
									"patching_rect" : [ 10.5, 7.0, 430.0, 53.0 ],
									"presentation" : 1,
									"presentation_rect" : [ 10.5, 7.0, 430.0, 53.0 ],
									"text" : "EMDM.LAZR~ HELP"
								}

							}
 ],
						"lines" : [ 							{
								"patchline" : 								{
									"destination" : [ "obj-16", 1 ],
									"source" : [ "obj-1", 1 ]
								}

							}
, 							{
								"patchline" : 								{
									"destination" : [ "obj-16", 0 ],
									"source" : [ "obj-1", 0 ]
								}

							}
, 							{
								"patchline" : 								{
									"destination" : [ "obj-1", 0 ],
									"source" : [ "obj-10", 0 ]
								}

							}
, 							{
								"patchline" : 								{
									"destination" : [ "obj-1", 0 ],
									"source" : [ "obj-13", 0 ]
								}

							}
, 							{
								"patchline" : 								{
									"destination" : [ "obj-1", 0 ],
									"source" : [ "obj-15", 0 ]
								}

							}
, 							{
								"patchline" : 								{
									"destination" : [ "obj-1", 1 ],
									"source" : [ "obj-18", 1 ]
								}

							}
, 							{
								"patchline" : 								{
									"destination" : [ "obj-1", 1 ],
									"source" : [ "obj-18", 0 ]
								}

							}
, 							{
								"patchline" : 								{
									"destination" : [ "obj-1", 0 ],
									"source" : [ "obj-3", 0 ]
								}

							}
, 							{
								"patchline" : 								{
									"destination" : [ "obj-1", 0 ],
									"source" : [ "obj-5", 0 ]
								}

							}
, 							{
								"patchline" : 								{
									"destination" : [ "obj-1", 0 ],
									"source" : [ "obj-7", 0 ]
								}

							}
 ],
						"bgcolor" : [ 0.529411764705882, 0.529411764705882, 0.529411764705882, 1.0 ]
					}
,
					"patching_rect" : [ 272.0, 89.0, 57.0, 24.0 ],
					"saved_object_attributes" : 					{
						"description" : "",
						"digest" : "",
						"globalpatchername" : "",
						"locked_bgcolor" : [ 0.529411764705882, 0.529411764705882, 0.529411764705882, 1.0 ],
						"tags" : ""
					}
,
					"text" : "p presets",
					"varname" : "presets"
				}

			}
, 			{
				"box" : 				{
					"id" : "obj-29",
					"maxclass" : "newobj",
					"numinlets" : 0,
					"numoutlets" : 0,
					"patcher" : 					{
						"fileversion" : 1,
						"appversion" : 						{
							"major" : 8,
							"minor" : 1,
							"revision" : 8,
							"architecture" : "x64",
							"modernui" : 1
						}
,
						"classnamespace" : "box",
						"rect" : [ 0.0, 26.0, 1138.0, 832.0 ],
						"bglocked" : 0,
						"openinpresentation" : 0,
						"default_fontsize" : 12.0,
						"default_fontface" : 0,
						"default_fontname" : "Arial",
						"gridonopen" : 1,
						"gridsize" : [ 15.0, 15.0 ],
						"gridsnaponopen" : 1,
						"objectsnaponopen" : 1,
						"statusbarvisible" : 2,
						"toolbarvisible" : 1,
						"lefttoolbarpinned" : 0,
						"toptoolbarpinned" : 0,
						"righttoolbarpinned" : 0,
						"bottomtoolbarpinned" : 0,
						"toolbars_unpinned_last_save" : 0,
						"tallnewobj" : 0,
						"boxanimatetime" : 200,
						"enablehscroll" : 1,
						"enablevscroll" : 1,
						"devicewidth" : 0.0,
						"description" : "",
						"digest" : "",
						"tags" : "",
						"style" : "",
						"subpatcher_template" : "",
						"showontab" : 1,
						"assistshowspatchername" : 0,
						"boxes" : [ 							{
								"box" : 								{
									"bubble" : 1,
									"bubbleside" : 0,
									"id" : "obj-19",
									"linecount" : 4,
									"maxclass" : "comment",
									"numinlets" : 1,
									"numoutlets" : 0,
									"patching_rect" : [ 470.75, 230.0, 155.0, 79.0 ],
									"text" : "messages from the HI device can then be routed to supply values to various control messages"
								}

							}
, 							{
								"box" : 								{
									"bubble" : 1,
									"id" : "obj-17",
									"linecount" : 5,
									"maxclass" : "comment",
									"numinlets" : 1,
									"numoutlets" : 0,
									"patching_rect" : [ 564.0, 159.0, 150.0, 78.0 ],
									"text" : "see the human interface object for information on how to connect your HI device. "
								}

							}
, 							{
								"box" : 								{
									"id" : "obj-15",
									"maxclass" : "newobj",
									"numinlets" : 1,
									"numoutlets" : 2,
									"outlettype" : [ "list", "" ],
									"patching_rect" : [ 531.0, 187.0, 29.5, 22.0 ],
									"text" : "hi"
								}

							}
, 							{
								"box" : 								{
									"basictuning" : 440,
									"data" : 									{
										"clips" : [ 											{
												"absolutepath" : "ELEPHANT.wav",
												"filename" : "ELEPHANT.wav",
												"filekind" : "audiofile",
												"id" : "u091006853",
												"loop" : 0,
												"content_state" : 												{

												}

											}
 ]
									}
,
									"followglobaltempo" : 0,
									"formantcorrection" : 0,
									"id" : "obj-13",
									"maxclass" : "playlist~",
									"mode" : "basic",
									"numinlets" : 1,
									"numoutlets" : 5,
									"originallength" : [ 0.0, "ticks" ],
									"originaltempo" : 120.0,
									"outlettype" : [ "signal", "signal", "signal", "", "dictionary" ],
									"parameter_enable" : 0,
									"patching_rect" : [ 103.0, 443.0, 150.0, 30.0 ],
									"pitchcorrection" : 0,
									"quality" : "basic",
									"timestretch" : [ 0 ]
								}

							}
, 							{
								"box" : 								{
									"id" : "obj-11",
									"linecount" : 2,
									"maxclass" : "message",
									"numinlets" : 2,
									"numoutlets" : 1,
									"outlettype" : [ "" ],
									"patching_rect" : [ 174.0, 560.0, 136.0, 35.0 ],
									"text" : "err404_control_not_found: done"
								}

							}
, 							{
								"box" : 								{
									"id" : "obj-9",
									"maxclass" : "ezdac~",
									"numinlets" : 2,
									"numoutlets" : 0,
									"patching_rect" : [ 50.0, 560.0, 45.0, 45.0 ]
								}

							}
, 							{
								"box" : 								{
									"bubble" : 1,
									"id" : "obj-8",
									"linecount" : 3,
									"maxclass" : "comment",
									"numinlets" : 1,
									"numoutlets" : 0,
									"patching_rect" : [ 181.0, 371.5, 150.0, 51.0 ],
									"text" : "be sure to add the 'nodelocation' control message id."
								}

							}
, 							{
								"box" : 								{
									"id" : "obj-3",
									"maxclass" : "newobj",
									"numinlets" : 1,
									"numoutlets" : 1,
									"outlettype" : [ "" ],
									"patching_rect" : [ 50.0, 386.0, 124.0, 22.0 ],
									"text" : "prepend nodelocation"
								}

							}
, 							{
								"box" : 								{
									"id" : "obj-26",
									"maxclass" : "comment",
									"numinlets" : 1,
									"numoutlets" : 0,
									"patching_rect" : [ 4.5, 92.0, 430.0, 20.0 ],
									"text" : "This instrument's presets can be interpolated through the [nodes] object"
								}

							}
, 							{
								"box" : 								{
									"id" : "obj-21",
									"maxclass" : "comment",
									"numinlets" : 1,
									"numoutlets" : 0,
									"patching_rect" : [ 4.5, 68.0, 430.0, 20.0 ],
									"text" : "Turns incoming audio signal into a sci-fi laser effect"
								}

							}
, 							{
								"box" : 								{
									"fontname" : "Futura",
									"fontsize" : 36.0,
									"id" : "obj-2",
									"maxclass" : "comment",
									"numinlets" : 1,
									"numoutlets" : 0,
									"patching_rect" : [ 4.5, 7.0, 430.0, 53.0 ],
									"presentation" : 1,
									"presentation_rect" : [ 25.5, 22.0, 430.0, 53.0 ],
									"text" : "EMDM.LAZR~ HELP"
								}

							}
, 							{
								"box" : 								{
									"id" : "obj-1",
									"maxclass" : "newobj",
									"numinlets" : 2,
									"numoutlets" : 3,
									"outlettype" : [ "signal", "signal", "" ],
									"patching_rect" : [ 50.0, 496.353912353515625, 72.0, 22.0 ],
									"text" : "emdm.lazr~",
									"varname" : "emdm.lazr~"
								}

							}
, 							{
								"box" : 								{
									"bubble" : 1,
									"id" : "obj-54",
									"linecount" : 4,
									"maxclass" : "comment",
									"numinlets" : 1,
									"numoutlets" : 0,
									"patching_rect" : [ 249.0, 213.353912353515625, 151.0, 64.0 ],
									"presentation" : 1,
									"presentation_linecount" : 3,
									"presentation_rect" : [ 237.0, 224.0, 219.0, 51.0 ],
									"text" : "Click and drag mouse, or connect H.I. device to affect processing ratios"
								}

							}
, 							{
								"box" : 								{
									"candycane" : 8,
									"displayknob" : 2,
									"id" : "obj-43",
									"knobsize" : 20.0,
									"maxclass" : "nodes",
									"nodenumber" : 9,
									"nodesnames" : [ "1", "2", "3", "4", "5", "6", "7", "8", "9" ],
									"nsize" : [ 0.414286, 0.588889, 0.2, 0.264286, 0.612698, 0.096825, 0.2291, 0.374603, 0.255556 ],
									"numinlets" : 1,
									"numoutlets" : 3,
									"outlettype" : [ "", "", "" ],
									"parameter_enable" : 0,
									"patching_rect" : [ 50.0, 150.853912353515625, 189.0, 189.0 ],
									"presentation" : 1,
									"presentation_rect" : [ 42.0, 224.0, 189.0, 189.0 ],
									"xplace" : [ 0.063492, 0.068783, 0.666667, 0.407407, 0.904762, 0.230159, 0.132275, 0.793651, 0.746032 ],
									"yplace" : [ 0.079365, 0.873016, 0.100529, 0.910053, 0.230159, 0.039683, 0.544974, 0.746032, 0.349206 ]
								}

							}
 ],
						"lines" : [ 							{
								"patchline" : 								{
									"destination" : [ "obj-11", 1 ],
									"source" : [ "obj-1", 2 ]
								}

							}
, 							{
								"patchline" : 								{
									"destination" : [ "obj-9", 1 ],
									"source" : [ "obj-1", 1 ]
								}

							}
, 							{
								"patchline" : 								{
									"destination" : [ "obj-9", 0 ],
									"source" : [ "obj-1", 0 ]
								}

							}
, 							{
								"patchline" : 								{
									"destination" : [ "obj-1", 1 ],
									"source" : [ "obj-13", 1 ]
								}

							}
, 							{
								"patchline" : 								{
									"destination" : [ "obj-1", 1 ],
									"source" : [ "obj-13", 0 ]
								}

							}
, 							{
								"patchline" : 								{
									"destination" : [ "obj-1", 0 ],
									"source" : [ "obj-3", 0 ]
								}

							}
, 							{
								"patchline" : 								{
									"destination" : [ "obj-3", 0 ],
									"source" : [ "obj-43", 0 ]
								}

							}
 ],
						"bgcolor" : [ 0.529411764705882, 0.529411764705882, 0.529411764705882, 1.0 ]
					}
,
					"patching_rect" : [ 417.5, 89.0, 52.0, 24.0 ],
					"saved_object_attributes" : 					{
						"description" : "",
						"digest" : "",
						"globalpatchername" : "",
						"locked_bgcolor" : [ 0.529411764705882, 0.529411764705882, 0.529411764705882, 1.0 ],
						"tags" : ""
					}
,
					"text" : "p nodes",
					"varname" : "nodes"
				}

			}
, 			{
				"box" : 				{
					"id" : "obj-28",
					"maxclass" : "newobj",
					"numinlets" : 0,
					"numoutlets" : 0,
					"patcher" : 					{
						"fileversion" : 1,
						"appversion" : 						{
							"major" : 8,
							"minor" : 1,
							"revision" : 8,
							"architecture" : "x64",
							"modernui" : 1
						}
,
						"classnamespace" : "box",
						"rect" : [ 0.0, 26.0, 1138.0, 832.0 ],
						"bglocked" : 0,
						"openinpresentation" : 0,
						"default_fontsize" : 12.0,
						"default_fontface" : 0,
						"default_fontname" : "Arial",
						"gridonopen" : 1,
						"gridsize" : [ 15.0, 15.0 ],
						"gridsnaponopen" : 1,
						"objectsnaponopen" : 1,
						"statusbarvisible" : 2,
						"toolbarvisible" : 1,
						"lefttoolbarpinned" : 0,
						"toptoolbarpinned" : 0,
						"righttoolbarpinned" : 0,
						"bottomtoolbarpinned" : 0,
						"toolbars_unpinned_last_save" : 0,
						"tallnewobj" : 0,
						"boxanimatetime" : 200,
						"enablehscroll" : 1,
						"enablevscroll" : 1,
						"devicewidth" : 0.0,
						"description" : "",
						"digest" : "",
						"tags" : "",
						"style" : "",
						"subpatcher_template" : "",
						"showontab" : 1,
						"assistshowspatchername" : 0,
						"boxes" : [ 							{
								"box" : 								{
									"bubble" : 1,
									"id" : "obj-11",
									"linecount" : 6,
									"maxclass" : "comment",
									"numinlets" : 1,
									"numoutlets" : 0,
									"patching_rect" : [ 816.0, 175.0, 150.0, 91.0 ],
									"text" : "all inlets and outlets behave normally, but the parameters can be controlled through the GUI instead of with control messages"
								}

							}
, 							{
								"box" : 								{
									"id" : "obj-9",
									"maxclass" : "newobj",
									"numinlets" : 1,
									"numoutlets" : 0,
									"patching_rect" : [ 787.0, 371.0, 32.0, 22.0 ],
									"text" : "print"
								}

							}
, 							{
								"box" : 								{
									"id" : "obj-6",
									"maxclass" : "ezdac~",
									"numinlets" : 2,
									"numoutlets" : 0,
									"patching_rect" : [ 434.0, 435.0, 45.0, 45.0 ]
								}

							}
, 							{
								"box" : 								{
									"basictuning" : 440,
									"data" : 									{
										"clips" : [ 											{
												"absolutepath" : "cherokee.aif",
												"filename" : "cherokee.aif",
												"filekind" : "audiofile",
												"id" : "u633001777",
												"loop" : 0,
												"content_state" : 												{

												}

											}
 ]
									}
,
									"followglobaltempo" : 0,
									"formantcorrection" : 0,
									"id" : "obj-5",
									"maxclass" : "playlist~",
									"mode" : "basic",
									"numinlets" : 1,
									"numoutlets" : 5,
									"originallength" : [ 0.0, "ticks" ],
									"originaltempo" : 120.0,
									"outlettype" : [ "signal", "signal", "signal", "", "dictionary" ],
									"parameter_enable" : 0,
									"patching_rect" : [ 816.0, 80.0, 150.0, 30.0 ],
									"pitchcorrection" : 0,
									"quality" : "basic",
									"timestretch" : [ 0 ]
								}

							}
, 							{
								"box" : 								{
									"bgmode" : 1,
									"border" : 0,
									"clickthrough" : 0,
									"enablehscroll" : 0,
									"enablevscroll" : 0,
									"id" : "obj-3",
									"lockeddragscroll" : 0,
									"maxclass" : "bpatcher",
									"name" : "emdm.lazr~.maxpat",
									"numinlets" : 2,
									"numoutlets" : 3,
									"offset" : [ 0.0, 0.0 ],
									"outlettype" : [ "signal", "signal", "" ],
									"patching_rect" : [ 333.0, 175.0, 473.0, 146.0 ],
									"varname" : "emdm.lazr~",
									"viewvisibility" : 1
								}

							}
, 							{
								"box" : 								{
									"bubble" : 1,
									"bubbleside" : 3,
									"id" : "obj-2",
									"linecount" : 3,
									"maxclass" : "comment",
									"numinlets" : 1,
									"numoutlets" : 0,
									"patching_rect" : [ 169.0, 224.5, 150.0, 51.0 ],
									"text" : "Load emdm.lazr~ into a [bpatcher] object to see the GUI."
								}

							}
, 							{
								"box" : 								{
									"id" : "obj-26",
									"maxclass" : "comment",
									"numinlets" : 1,
									"numoutlets" : 0,
									"patching_rect" : [ 10.5, 92.0, 430.0, 20.0 ],
									"text" : "lazr~ can also be controlled through a built-in Graphic User Interface"
								}

							}
, 							{
								"box" : 								{
									"id" : "obj-21",
									"maxclass" : "comment",
									"numinlets" : 1,
									"numoutlets" : 0,
									"patching_rect" : [ 10.5, 68.0, 430.0, 20.0 ],
									"text" : "Turns incoming audio signal into a sci-fi laser effect"
								}

							}
, 							{
								"box" : 								{
									"fontname" : "Futura",
									"fontsize" : 36.0,
									"id" : "obj-43",
									"maxclass" : "comment",
									"numinlets" : 1,
									"numoutlets" : 0,
									"patching_rect" : [ 10.5, 7.0, 430.0, 53.0 ],
									"presentation" : 1,
									"presentation_rect" : [ 10.5, 7.0, 430.0, 53.0 ],
									"text" : "EMDM.LAZR~ HELP"
								}

							}
 ],
						"lines" : [ 							{
								"patchline" : 								{
									"destination" : [ "obj-6", 1 ],
									"source" : [ "obj-3", 1 ]
								}

							}
, 							{
								"patchline" : 								{
									"destination" : [ "obj-6", 0 ],
									"source" : [ "obj-3", 0 ]
								}

							}
, 							{
								"patchline" : 								{
									"destination" : [ "obj-9", 0 ],
									"source" : [ "obj-3", 2 ]
								}

							}
, 							{
								"patchline" : 								{
									"destination" : [ "obj-3", 1 ],
									"source" : [ "obj-5", 1 ]
								}

							}
, 							{
								"patchline" : 								{
									"destination" : [ "obj-3", 1 ],
									"source" : [ "obj-5", 0 ]
								}

							}
 ],
						"bgcolor" : [ 0.647058823529412, 0.647058823529412, 0.647058823529412, 1.0 ]
					}
,
					"patching_rect" : [ 349.0, 89.0, 42.0, 24.0 ],
					"saved_object_attributes" : 					{
						"description" : "",
						"digest" : "",
						"globalpatchername" : "",
						"locked_bgcolor" : [ 0.647058823529412, 0.647058823529412, 0.647058823529412, 1.0 ],
						"tags" : ""
					}
,
					"text" : "p GUI",
					"varname" : "GUI"
				}

			}
, 			{
				"box" : 				{
					"id" : "obj-27",
					"maxclass" : "newobj",
					"numinlets" : 0,
					"numoutlets" : 0,
					"patcher" : 					{
						"fileversion" : 1,
						"appversion" : 						{
							"major" : 8,
							"minor" : 1,
							"revision" : 8,
							"architecture" : "x64",
							"modernui" : 1
						}
,
						"classnamespace" : "box",
						"rect" : [ 2155.0, 113.0, 1138.0, 832.0 ],
						"bglocked" : 0,
						"openinpresentation" : 0,
						"default_fontsize" : 12.0,
						"default_fontface" : 0,
						"default_fontname" : "Arial",
						"gridonopen" : 1,
						"gridsize" : [ 15.0, 15.0 ],
						"gridsnaponopen" : 1,
						"objectsnaponopen" : 1,
						"statusbarvisible" : 2,
						"toolbarvisible" : 1,
						"lefttoolbarpinned" : 0,
						"toptoolbarpinned" : 0,
						"righttoolbarpinned" : 0,
						"bottomtoolbarpinned" : 0,
						"toolbars_unpinned_last_save" : 0,
						"tallnewobj" : 0,
						"boxanimatetime" : 200,
						"enablehscroll" : 1,
						"enablevscroll" : 1,
						"devicewidth" : 0.0,
						"description" : "",
						"digest" : "",
						"tags" : "",
						"style" : "",
						"subpatcher_template" : "",
						"showontab" : 1,
						"assistshowspatchername" : 0,
						"boxes" : [ 							{
								"box" : 								{
									"id" : "obj-27",
									"maxclass" : "slider",
									"numinlets" : 1,
									"numoutlets" : 1,
									"outlettype" : [ "" ],
									"parameter_enable" : 0,
									"patching_rect" : [ 61.0, 176.0, 20.0, 140.0 ]
								}

							}
, 							{
								"box" : 								{
									"id" : "obj-15",
									"maxclass" : "meter~",
									"numinlets" : 1,
									"numoutlets" : 1,
									"outlettype" : [ "float" ],
									"patching_rect" : [ 912.5, 244.0, 12.0, 140.0 ]
								}

							}
, 							{
								"box" : 								{
									"id" : "obj-7",
									"maxclass" : "meter~",
									"numinlets" : 1,
									"numoutlets" : 1,
									"outlettype" : [ "float" ],
									"patching_rect" : [ 830.0, 244.0, 12.0, 140.0 ]
								}

							}
, 							{
								"box" : 								{
									"id" : "obj-18",
									"maxclass" : "gain~",
									"multichannelvariant" : 0,
									"numinlets" : 1,
									"numoutlets" : 2,
									"outlettype" : [ "signal", "" ],
									"parameter_enable" : 0,
									"patching_rect" : [ 902.5, 244.0, 22.0, 140.0 ]
								}

							}
, 							{
								"box" : 								{
									"id" : "obj-20",
									"maxclass" : "gain~",
									"multichannelvariant" : 0,
									"numinlets" : 1,
									"numoutlets" : 2,
									"outlettype" : [ "signal", "" ],
									"parameter_enable" : 0,
									"patching_rect" : [ 814.0, 244.0, 22.0, 140.0 ]
								}

							}
, 							{
								"box" : 								{
									"id" : "obj-10",
									"maxclass" : "slider",
									"numinlets" : 1,
									"numoutlets" : 1,
									"outlettype" : [ "" ],
									"parameter_enable" : 0,
									"patching_rect" : [ 29.5, 474.0, 20.0, 140.0 ]
								}

							}
, 							{
								"box" : 								{
									"id" : "obj-3",
									"maxclass" : "newobj",
									"numinlets" : 1,
									"numoutlets" : 0,
									"patching_rect" : [ 171.0, 512.0, 60.0, 22.0 ],
									"text" : "s controls"
								}

							}
, 							{
								"box" : 								{
									"id" : "obj-2",
									"maxclass" : "newobj",
									"numinlets" : 0,
									"numoutlets" : 1,
									"outlettype" : [ "" ],
									"patching_rect" : [ 737.0, 115.0, 58.0, 22.0 ],
									"text" : "r controls"
								}

							}
, 							{
								"box" : 								{
									"id" : "obj-26",
									"maxclass" : "comment",
									"numinlets" : 1,
									"numoutlets" : 0,
									"patching_rect" : [ 10.5, 92.0, 430.0, 20.0 ],
									"text" : "lazr~ can take a variety of control messages to change the effect"
								}

							}
, 							{
								"box" : 								{
									"id" : "obj-21",
									"maxclass" : "comment",
									"numinlets" : 1,
									"numoutlets" : 0,
									"patching_rect" : [ 10.5, 68.0, 430.0, 20.0 ],
									"text" : "Turns incoming audio signal into a sci-fi laser effect"
								}

							}
, 							{
								"box" : 								{
									"id" : "obj-25",
									"maxclass" : "newobj",
									"numinlets" : 1,
									"numoutlets" : 0,
									"patching_rect" : [ 1057.5, 209.0, 33.0, 22.0 ],
									"presentation" : 1,
									"presentation_rect" : [ 509.0, 724.0, 33.0, 22.0 ],
									"text" : "print"
								}

							}
, 							{
								"box" : 								{
									"bubble" : 1,
									"id" : "obj-24",
									"linecount" : 2,
									"maxclass" : "comment",
									"numinlets" : 1,
									"numoutlets" : 0,
									"patching_rect" : [ 306.0, 407.0, 207.0, 37.0 ],
									"presentation" : 1,
									"presentation_linecount" : 2,
									"presentation_rect" : [ 204.0, 308.0, 207.0, 37.0 ],
									"text" : "toggle between different presets (1-9 for default presets)"
								}

							}
, 							{
								"box" : 								{
									"id" : "obj-22",
									"maxclass" : "message",
									"numinlets" : 2,
									"numoutlets" : 1,
									"outlettype" : [ "" ],
									"patching_rect" : [ 253.0, 414.0, 53.0, 22.0 ],
									"presentation" : 1,
									"presentation_rect" : [ 151.0, 315.0, 53.0, 22.0 ],
									"text" : "preset 5"
								}

							}
, 							{
								"box" : 								{
									"bubble" : 1,
									"bubbleside" : 2,
									"id" : "obj-19",
									"maxclass" : "comment",
									"numinlets" : 1,
									"numoutlets" : 0,
									"patching_rect" : [ 639.5, 71.0, 306.5, 39.0 ],
									"presentation" : 1,
									"presentation_rect" : [ 34.5, 143.0, 306.5, 39.0 ],
									"text" : "control messages can be sent through the 1st inlet."
								}

							}
, 							{
								"box" : 								{
									"bubble" : 1,
									"id" : "obj-16",
									"linecount" : 2,
									"maxclass" : "comment",
									"numinlets" : 1,
									"numoutlets" : 0,
									"patching_rect" : [ 483.0, 531.5, 182.0, 37.0 ],
									"presentation" : 1,
									"presentation_linecount" : 2,
									"presentation_rect" : [ 204.0, 284.0, 182.0, 37.0 ],
									"text" : "toggle passthrough mute (0/1)"
								}

							}
, 							{
								"box" : 								{
									"bubble" : 1,
									"id" : "obj-12",
									"maxclass" : "comment",
									"numinlets" : 1,
									"numoutlets" : 0,
									"patching_rect" : [ 427.0, 601.0, 150.0, 24.0 ],
									"presentation" : 1,
									"presentation_rect" : [ 184.0, 253.0, 150.0, 24.0 ],
									"text" : "toggle effect mute (0/1)"
								}

							}
, 							{
								"box" : 								{
									"id" : "obj-8",
									"maxclass" : "message",
									"numinlets" : 2,
									"numoutlets" : 1,
									"outlettype" : [ "" ],
									"patching_rect" : [ 379.0, 539.0, 100.0, 22.0 ],
									"presentation" : 1,
									"presentation_rect" : [ 102.0, 284.0, 100.0, 22.0 ],
									"text" : "pass_toggle 0"
								}

							}
, 							{
								"box" : 								{
									"id" : "obj-5",
									"maxclass" : "message",
									"numinlets" : 2,
									"numoutlets" : 1,
									"outlettype" : [ "" ],
									"patching_rect" : [ 323.0, 601.0, 99.0, 22.0 ],
									"presentation" : 1,
									"presentation_rect" : [ 80.0, 253.0, 99.0, 22.0 ],
									"text" : "effect_toggle 1"
								}

							}
, 							{
								"box" : 								{
									"fontname" : "Futura",
									"fontsize" : 36.0,
									"id" : "obj-43",
									"maxclass" : "comment",
									"numinlets" : 1,
									"numoutlets" : 0,
									"patching_rect" : [ 10.5, 7.0, 430.0, 53.0 ],
									"presentation" : 1,
									"presentation_rect" : [ 10.5, 7.0, 430.0, 53.0 ],
									"text" : "EMDM.LAZR~ HELP"
								}

							}
, 							{
								"box" : 								{
									"bubble" : 1,
									"id" : "obj-35",
									"linecount" : 2,
									"maxclass" : "comment",
									"numinlets" : 1,
									"numoutlets" : 0,
									"patching_rect" : [ 372.5, 455.0, 122.0, 37.0 ],
									"presentation" : 1,
									"presentation_linecount" : 3,
									"presentation_rect" : [ 223.5, 357.0, 108.0, 51.0 ],
									"text" : "Non-compatible control message"
								}

							}
, 							{
								"box" : 								{
									"bubble" : 1,
									"id" : "obj-34",
									"linecount" : 2,
									"maxclass" : "comment",
									"numinlets" : 1,
									"numoutlets" : 0,
									"patching_rect" : [ 320.5, 364.0, 167.0, 37.0 ],
									"presentation" : 1,
									"presentation_linecount" : 2,
									"presentation_rect" : [ 164.5, 227.0, 167.0, 37.0 ],
									"text" : "control effect volume (0-127)"
								}

							}
, 							{
								"box" : 								{
									"bubble" : 1,
									"bubbleside" : 0,
									"id" : "obj-33",
									"maxclass" : "comment",
									"numinlets" : 1,
									"numoutlets" : 0,
									"patching_rect" : [ 10.5, 664.0, 207.0, 39.0 ],
									"presentation" : 1,
									"presentation_rect" : [ 134.0, 199.0, 207.0, 39.0 ],
									"text" : "control pass through volume (0-127)"
								}

							}
, 							{
								"box" : 								{
									"bubble" : 1,
									"id" : "obj-32",
									"linecount" : 2,
									"maxclass" : "comment",
									"numinlets" : 1,
									"numoutlets" : 0,
									"patching_rect" : [ 139.0, 325.5, 167.0, 37.0 ],
									"presentation" : 1,
									"presentation_linecount" : 2,
									"presentation_rect" : [ 90.0, 173.0, 167.0, 37.0 ],
									"text" : "control effect speed (0-127)"
								}

							}
, 							{
								"box" : 								{
									"bubble" : 1,
									"id" : "obj-30",
									"linecount" : 4,
									"maxclass" : "comment",
									"numinlets" : 1,
									"numoutlets" : 0,
									"patching_rect" : [ 1104.5, 167.5, 152.0, 64.0 ],
									"presentation" : 1,
									"presentation_linecount" : 4,
									"presentation_rect" : [ 306.5, 766.0, 152.0, 64.0 ],
									"text" : "non-compatible messages are returned through the third outlet (default: done)"
								}

							}
, 							{
								"box" : 								{
									"basictuning" : 440,
									"data" : 									{
										"clips" : [ 											{
												"absolutepath" : "violin.wav",
												"filename" : "violin.wav",
												"filekind" : "audiofile",
												"id" : "u351010853",
												"loop" : 1,
												"content_state" : 												{
													"loop" : 1
												}

											}
 ]
									}
,
									"followglobaltempo" : 0,
									"formantcorrection" : 0,
									"id" : "obj-17",
									"maxclass" : "playlist~",
									"mode" : "basic",
									"numinlets" : 1,
									"numoutlets" : 5,
									"originallength" : [ 0.0, "ticks" ],
									"originaltempo" : 120.0,
									"outlettype" : [ "signal", "signal", "signal", "", "dictionary" ],
									"parameter_enable" : 0,
									"patching_rect" : [ 971.0, 22.0, 150.0, 30.0 ],
									"pitchcorrection" : 0,
									"presentation" : 1,
									"presentation_rect" : [ 474.0, 339.0, 150.0, 30.0 ],
									"quality" : "basic",
									"timestretch" : [ 0 ]
								}

							}
, 							{
								"box" : 								{
									"id" : "obj-14",
									"maxclass" : "ezdac~",
									"numinlets" : 2,
									"numoutlets" : 0,
									"patching_rect" : [ 848.5, 441.0, 45.0, 45.0 ],
									"presentation" : 1,
									"presentation_rect" : [ 14.0, 773.0, 45.0, 45.0 ]
								}

							}
, 							{
								"box" : 								{
									"id" : "obj-13",
									"maxclass" : "message",
									"numinlets" : 2,
									"numoutlets" : 1,
									"outlettype" : [ "" ],
									"patching_rect" : [ 323.0, 459.0, 50.0, 22.0 ],
									"presentation" : 1,
									"presentation_rect" : [ 171.5, 357.0, 50.0, 22.0 ],
									"text" : "bang"
								}

							}
, 							{
								"box" : 								{
									"id" : "obj-11",
									"maxclass" : "message",
									"numinlets" : 2,
									"numoutlets" : 1,
									"outlettype" : [ "" ],
									"patching_rect" : [ 902.5, 180.0, 188.0, 22.0 ],
									"presentation" : 1,
									"presentation_rect" : [ 306.5, 724.0, 188.0, 22.0 ],
									"text" : "err404_control_not_found: done"
								}

							}
, 							{
								"box" : 								{
									"id" : "obj-9",
									"maxclass" : "message",
									"numinlets" : 2,
									"numoutlets" : 1,
									"outlettype" : [ "" ],
									"patching_rect" : [ 219.0, 370.0, 98.0, 22.0 ],
									"presentation" : 1,
									"presentation_rect" : [ 63.0, 227.0, 98.0, 22.0 ],
									"text" : "output_level 110"
								}

							}
, 							{
								"box" : 								{
									"id" : "obj-6",
									"maxclass" : "message",
									"numinlets" : 2,
									"numoutlets" : 1,
									"outlettype" : [ "" ],
									"patching_rect" : [ 29.5, 627.0, 82.0, 22.0 ],
									"presentation" : 1,
									"presentation_rect" : [ 34.5, 199.0, 89.0, 22.0 ],
									"text" : "pass_level $1"
								}

							}
, 							{
								"box" : 								{
									"id" : "obj-4",
									"maxclass" : "message",
									"numinlets" : 2,
									"numoutlets" : 1,
									"outlettype" : [ "" ],
									"patching_rect" : [ 61.0, 333.0, 58.0, 22.0 ],
									"presentation" : 1,
									"presentation_rect" : [ 14.0, 173.0, 74.0, 22.0 ],
									"text" : "speed $1"
								}

							}
, 							{
								"box" : 								{
									"id" : "obj-1",
									"maxclass" : "newobj",
									"numinlets" : 2,
									"numoutlets" : 3,
									"outlettype" : [ "signal", "signal", "" ],
									"patching_rect" : [ 814.0, 156.0, 79.5, 22.0 ],
									"presentation" : 1,
									"presentation_rect" : [ 14.0, 676.0, 79.5, 22.0 ],
									"text" : "emdm.lazr~",
									"varname" : "emdm.lazr~"
								}

							}
 ],
						"lines" : [ 							{
								"patchline" : 								{
									"destination" : [ "obj-11", 1 ],
									"order" : 0,
									"source" : [ "obj-1", 2 ]
								}

							}
, 							{
								"patchline" : 								{
									"destination" : [ "obj-18", 0 ],
									"source" : [ "obj-1", 1 ]
								}

							}
, 							{
								"patchline" : 								{
									"destination" : [ "obj-20", 0 ],
									"source" : [ "obj-1", 0 ]
								}

							}
, 							{
								"patchline" : 								{
									"destination" : [ "obj-25", 0 ],
									"order" : 1,
									"source" : [ "obj-1", 2 ]
								}

							}
, 							{
								"patchline" : 								{
									"destination" : [ "obj-6", 0 ],
									"source" : [ "obj-10", 0 ]
								}

							}
, 							{
								"patchline" : 								{
									"destination" : [ "obj-3", 0 ],
									"source" : [ "obj-13", 0 ]
								}

							}
, 							{
								"patchline" : 								{
									"destination" : [ "obj-1", 1 ],
									"source" : [ "obj-17", 1 ]
								}

							}
, 							{
								"patchline" : 								{
									"destination" : [ "obj-1", 1 ],
									"source" : [ "obj-17", 0 ]
								}

							}
, 							{
								"patchline" : 								{
									"destination" : [ "obj-14", 1 ],
									"order" : 1,
									"source" : [ "obj-18", 0 ]
								}

							}
, 							{
								"patchline" : 								{
									"destination" : [ "obj-14", 0 ],
									"order" : 2,
									"source" : [ "obj-18", 0 ]
								}

							}
, 							{
								"patchline" : 								{
									"destination" : [ "obj-15", 0 ],
									"order" : 0,
									"source" : [ "obj-18", 0 ]
								}

							}
, 							{
								"patchline" : 								{
									"destination" : [ "obj-1", 0 ],
									"source" : [ "obj-2", 0 ]
								}

							}
, 							{
								"patchline" : 								{
									"destination" : [ "obj-14", 1 ],
									"order" : 0,
									"source" : [ "obj-20", 0 ]
								}

							}
, 							{
								"patchline" : 								{
									"destination" : [ "obj-14", 0 ],
									"order" : 1,
									"source" : [ "obj-20", 0 ]
								}

							}
, 							{
								"patchline" : 								{
									"destination" : [ "obj-7", 0 ],
									"order" : 2,
									"source" : [ "obj-20", 0 ]
								}

							}
, 							{
								"patchline" : 								{
									"destination" : [ "obj-3", 0 ],
									"source" : [ "obj-22", 0 ]
								}

							}
, 							{
								"patchline" : 								{
									"destination" : [ "obj-4", 0 ],
									"source" : [ "obj-27", 0 ]
								}

							}
, 							{
								"patchline" : 								{
									"destination" : [ "obj-3", 0 ],
									"source" : [ "obj-4", 0 ]
								}

							}
, 							{
								"patchline" : 								{
									"destination" : [ "obj-3", 0 ],
									"source" : [ "obj-5", 0 ]
								}

							}
, 							{
								"patchline" : 								{
									"destination" : [ "obj-3", 0 ],
									"source" : [ "obj-6", 0 ]
								}

							}
, 							{
								"patchline" : 								{
									"destination" : [ "obj-3", 0 ],
									"source" : [ "obj-8", 0 ]
								}

							}
, 							{
								"patchline" : 								{
									"destination" : [ "obj-3", 0 ],
									"source" : [ "obj-9", 0 ]
								}

							}
 ],
						"accentcolor" : [ 0.529411764705882, 0.529411764705882, 0.529411764705882, 1.0 ],
						"bgcolor" : [ 0.529411764705882, 0.529411764705882, 0.529411764705882, 1.0 ]
					}
,
					"patching_rect" : [ 144.0, 89.0, 111.0, 24.0 ],
					"saved_object_attributes" : 					{
						"accentcolor" : [ 0.529411764705882, 0.529411764705882, 0.529411764705882, 1.0 ],
						"description" : "",
						"digest" : "",
						"globalpatchername" : "",
						"locked_bgcolor" : [ 0.529411764705882, 0.529411764705882, 0.529411764705882, 1.0 ],
						"tags" : ""
					}
,
					"text" : "p control-messages",
					"varname" : "control-messages"
				}

			}
, 			{
				"box" : 				{
					"id" : "obj-7",
					"maxclass" : "newobj",
					"numinlets" : 0,
					"numoutlets" : 0,
					"patcher" : 					{
						"fileversion" : 1,
						"appversion" : 						{
							"major" : 8,
							"minor" : 1,
							"revision" : 8,
							"architecture" : "x64",
							"modernui" : 1
						}
,
						"classnamespace" : "box",
						"rect" : [ 0.0, 26.0, 1138.0, 832.0 ],
						"bglocked" : 0,
						"openinpresentation" : 0,
						"default_fontsize" : 12.0,
						"default_fontface" : 0,
						"default_fontname" : "Arial",
						"gridonopen" : 1,
						"gridsize" : [ 15.0, 15.0 ],
						"gridsnaponopen" : 1,
						"objectsnaponopen" : 1,
						"statusbarvisible" : 2,
						"toolbarvisible" : 1,
						"lefttoolbarpinned" : 0,
						"toptoolbarpinned" : 0,
						"righttoolbarpinned" : 0,
						"bottomtoolbarpinned" : 0,
						"toolbars_unpinned_last_save" : 0,
						"tallnewobj" : 0,
						"boxanimatetime" : 200,
						"enablehscroll" : 1,
						"enablevscroll" : 1,
						"devicewidth" : 0.0,
						"description" : "",
						"digest" : "",
						"tags" : "",
						"style" : "",
						"subpatcher_template" : "",
						"showontab" : 1,
						"assistshowspatchername" : 0,
						"boxes" : [ 							{
								"box" : 								{
									"hidden" : 1,
									"id" : "obj-12",
									"linecount" : 2,
									"maxclass" : "message",
									"numinlets" : 2,
									"numoutlets" : 1,
									"outlettype" : [ "" ],
									"patching_rect" : [ 121.0, 178.0, 279.0, 35.0 ],
									"text" : ";\rmax launchbrowser https://matthewbardin.com/lazr"
								}

							}
, 							{
								"box" : 								{
									"handoff" : "",
									"id" : "obj-2",
									"maxclass" : "ubutton",
									"numinlets" : 1,
									"numoutlets" : 4,
									"outlettype" : [ "bang", "bang", "", "int" ],
									"parameter_enable" : 0,
									"patching_rect" : [ 10.5, 146.0, 350.0, 30.0 ]
								}

							}
, 							{
								"box" : 								{
									"fontname" : "Futura",
									"id" : "obj-45",
									"linecount" : 5,
									"maxclass" : "comment",
									"numinlets" : 1,
									"numoutlets" : 0,
									"patching_rect" : [ 10.5, 60.0, 421.0, 84.0 ],
									"presentation" : 1,
									"presentation_linecount" : 19,
									"presentation_rect" : [ 1156.0, 55.0, 95.0, 303.0 ],
									"text" : "lazr~ is a mono audio effect that applies a phasing, lazer-gun-esque sound to any incoming audio. \n\nThe effect is only triggered when an audio signal is sent to the right inlet; the patch auto-mutes if no audio signal is entering the system."
								}

							}
, 							{
								"box" : 								{
									"bubble" : 1,
									"id" : "obj-11",
									"linecount" : 3,
									"maxclass" : "comment",
									"numinlets" : 1,
									"numoutlets" : 0,
									"patching_rect" : [ 492.0, 396.0, 150.0, 51.0 ],
									"text" : "a dry passthrough leaves the second outlet"
								}

							}
, 							{
								"box" : 								{
									"bubble" : 1,
									"bubbleside" : 3,
									"id" : "obj-9",
									"linecount" : 2,
									"maxclass" : "comment",
									"numinlets" : 1,
									"numoutlets" : 0,
									"patching_rect" : [ 228.5, 403.10369873046875, 150.0, 37.0 ],
									"text" : "the effect leaves the left outlet"
								}

							}
, 							{
								"box" : 								{
									"id" : "obj-8",
									"maxclass" : "meter~",
									"numinlets" : 1,
									"numoutlets" : 1,
									"outlettype" : [ "float" ],
									"patching_rect" : [ 471.0, 351.60369873046875, 12.0, 140.0 ]
								}

							}
, 							{
								"box" : 								{
									"id" : "obj-7",
									"maxclass" : "meter~",
									"numinlets" : 1,
									"numoutlets" : 1,
									"outlettype" : [ "float" ],
									"patching_rect" : [ 404.0, 351.60369873046875, 12.0, 140.0 ]
								}

							}
, 							{
								"box" : 								{
									"id" : "obj-5",
									"maxclass" : "gain~",
									"multichannelvariant" : 0,
									"numinlets" : 1,
									"numoutlets" : 2,
									"outlettype" : [ "signal", "" ],
									"parameter_enable" : 0,
									"patching_rect" : [ 457.0, 351.60369873046875, 22.0, 140.0 ]
								}

							}
, 							{
								"box" : 								{
									"id" : "obj-4",
									"maxclass" : "gain~",
									"multichannelvariant" : 0,
									"numinlets" : 1,
									"numoutlets" : 2,
									"outlettype" : [ "signal", "" ],
									"parameter_enable" : 0,
									"patching_rect" : [ 388.0, 351.60369873046875, 22.0, 140.0 ]
								}

							}
, 							{
								"box" : 								{
									"bubble" : 1,
									"bubbleside" : 3,
									"id" : "obj-3",
									"linecount" : 3,
									"maxclass" : "comment",
									"numinlets" : 1,
									"numoutlets" : 0,
									"patching_rect" : [ 256.0, 282.0, 150.0, 51.0 ],
									"text" : "The first inlet recieves control messages for changing the effect"
								}

							}
, 							{
								"box" : 								{
									"fontname" : "Futura",
									"id" : "obj-26",
									"maxclass" : "comment",
									"numinlets" : 1,
									"numoutlets" : 0,
									"patching_rect" : [ 10.5, 146.0, 346.0, 22.0 ],
									"text" : "Patch by Matthew A. Bardin. For more information, click here"
								}

							}
, 							{
								"box" : 								{
									"bubble" : 1,
									"id" : "obj-27",
									"linecount" : 6,
									"maxclass" : "comment",
									"numinlets" : 1,
									"numoutlets" : 0,
									"patching_rect" : [ 507.0, 262.0, 86.0, 91.0 ],
									"presentation" : 1,
									"presentation_linecount" : 6,
									"presentation_rect" : [ 524.0, 411.0, 86.0, 91.0 ],
									"text" : "all audio routed into lazr~ will be summed into mono."
								}

							}
, 							{
								"box" : 								{
									"fontname" : "Futura",
									"fontsize" : 36.0,
									"id" : "obj-43",
									"maxclass" : "comment",
									"numinlets" : 1,
									"numoutlets" : 0,
									"patching_rect" : [ 10.5, 7.0, 430.0, 53.0 ],
									"presentation" : 1,
									"presentation_rect" : [ 10.5, 7.0, 430.0, 53.0 ],
									"text" : "EMDM.LAZR~ HELP"
								}

							}
, 							{
								"box" : 								{
									"bubble" : 1,
									"bubbleside" : 2,
									"id" : "obj-39",
									"linecount" : 2,
									"maxclass" : "comment",
									"numinlets" : 1,
									"numoutlets" : 0,
									"patching_rect" : [ 436.0, 146.0, 194.0, 52.0 ],
									"presentation" : 1,
									"presentation_linecount" : 2,
									"presentation_rect" : [ 430.0, 297.0, 194.0, 52.0 ],
									"text" : "any audio signal can be passed into lazr~ (2nd inlet)"
								}

							}
, 							{
								"box" : 								{
									"basictuning" : 440,
									"data" : 									{
										"clips" : [ 											{
												"absolutepath" : "violin.wav",
												"filename" : "violin.wav",
												"filekind" : "audiofile",
												"id" : "u351010853",
												"loop" : 1,
												"content_state" : 												{
													"loop" : 1
												}

											}
 ]
									}
,
									"followglobaltempo" : 0,
									"formantcorrection" : 0,
									"id" : "obj-17",
									"maxclass" : "playlist~",
									"mode" : "basic",
									"numinlets" : 1,
									"numoutlets" : 5,
									"originallength" : [ 0.0, "ticks" ],
									"originaltempo" : 120.0,
									"outlettype" : [ "signal", "signal", "signal", "", "dictionary" ],
									"parameter_enable" : 0,
									"patching_rect" : [ 466.0, 212.0, 150.0, 30.0 ],
									"pitchcorrection" : 0,
									"presentation" : 1,
									"presentation_rect" : [ 474.0, 339.0, 150.0, 30.0 ],
									"quality" : "basic",
									"timestretch" : [ 0 ]
								}

							}
, 							{
								"box" : 								{
									"id" : "obj-14",
									"maxclass" : "ezdac~",
									"numinlets" : 2,
									"numoutlets" : 0,
									"patching_rect" : [ 404.0, 532.0, 45.0, 45.0 ],
									"presentation" : 1,
									"presentation_rect" : [ 14.0, 773.0, 45.0, 45.0 ]
								}

							}
, 							{
								"box" : 								{
									"id" : "obj-1",
									"maxclass" : "newobj",
									"numinlets" : 2,
									"numoutlets" : 3,
									"outlettype" : [ "signal", "signal", "" ],
									"patching_rect" : [ 410.0, 300.0, 79.5, 22.0 ],
									"presentation" : 1,
									"presentation_rect" : [ 14.0, 676.0, 79.5, 22.0 ],
									"text" : "emdm.lazr~",
									"varname" : "emdm.lazr~"
								}

							}
 ],
						"lines" : [ 							{
								"patchline" : 								{
									"destination" : [ "obj-4", 0 ],
									"source" : [ "obj-1", 0 ]
								}

							}
, 							{
								"patchline" : 								{
									"destination" : [ "obj-5", 0 ],
									"source" : [ "obj-1", 1 ]
								}

							}
, 							{
								"patchline" : 								{
									"destination" : [ "obj-1", 1 ],
									"source" : [ "obj-17", 1 ]
								}

							}
, 							{
								"patchline" : 								{
									"destination" : [ "obj-1", 1 ],
									"source" : [ "obj-17", 0 ]
								}

							}
, 							{
								"patchline" : 								{
									"destination" : [ "obj-12", 0 ],
									"source" : [ "obj-2", 1 ]
								}

							}
, 							{
								"patchline" : 								{
									"destination" : [ "obj-14", 1 ],
									"order" : 0,
									"source" : [ "obj-4", 0 ]
								}

							}
, 							{
								"patchline" : 								{
									"destination" : [ "obj-14", 0 ],
									"order" : 1,
									"source" : [ "obj-4", 0 ]
								}

							}
, 							{
								"patchline" : 								{
									"destination" : [ "obj-7", 0 ],
									"order" : 2,
									"source" : [ "obj-4", 0 ]
								}

							}
, 							{
								"patchline" : 								{
									"destination" : [ "obj-14", 1 ],
									"order" : 1,
									"source" : [ "obj-5", 0 ]
								}

							}
, 							{
								"patchline" : 								{
									"destination" : [ "obj-14", 0 ],
									"order" : 2,
									"source" : [ "obj-5", 0 ]
								}

							}
, 							{
								"patchline" : 								{
									"destination" : [ "obj-8", 0 ],
									"order" : 0,
									"source" : [ "obj-5", 0 ]
								}

							}
 ],
						"bgcolor" : [ 0.529411764705882, 0.529411764705882, 0.529411764705882, 1.0 ]
					}
,
					"patching_rect" : [ 48.0, 89.0, 86.0, 24.0 ],
					"saved_object_attributes" : 					{
						"description" : "",
						"digest" : "",
						"globalpatchername" : "",
						"locked_bgcolor" : [ 0.529411764705882, 0.529411764705882, 0.529411764705882, 1.0 ],
						"tags" : ""
					}
,
					"text" : "p emdm.lazr~",
					"varname" : "emdm.lazr~"
				}

			}
 ],
		"lines" : [  ],
		"parameters" : 		{
			"obj-27::obj-1::obj-44" : [ "live.toggle[4]", "live.toggle", 0 ],
			"obj-27::obj-1::obj-60" : [ "live.toggle[5]", "live.toggle", 0 ],
			"obj-27::obj-1::obj-65" : [ "live.gain~[4]", "effect level", 0 ],
			"obj-27::obj-1::obj-67" : [ "live.gain~[5]", "bypass level", 0 ],
			"obj-27::obj-1::obj-75" : [ "live.slider[2]", "effect speed", 0 ],
			"obj-28::obj-3::obj-44" : [ "live.toggle[7]", "live.toggle", 0 ],
			"obj-28::obj-3::obj-60" : [ "live.toggle[6]", "live.toggle", 0 ],
			"obj-28::obj-3::obj-65" : [ "live.gain~[7]", "effect level", 0 ],
			"obj-28::obj-3::obj-67" : [ "live.gain~[6]", "bypass level", 0 ],
			"obj-28::obj-3::obj-75" : [ "live.slider[3]", "effect speed", 0 ],
			"obj-29::obj-1::obj-44" : [ "live.toggle[8]", "live.toggle", 0 ],
			"obj-29::obj-1::obj-60" : [ "live.toggle[9]", "live.toggle", 0 ],
			"obj-29::obj-1::obj-65" : [ "live.gain~[9]", "effect level", 0 ],
			"obj-29::obj-1::obj-67" : [ "live.gain~[8]", "bypass level", 0 ],
			"obj-29::obj-1::obj-75" : [ "live.slider[4]", "effect speed", 0 ],
			"obj-30::obj-1::obj-44" : [ "live.toggle", "live.toggle", 0 ],
			"obj-30::obj-1::obj-60" : [ "live.toggle[1]", "live.toggle", 0 ],
			"obj-30::obj-1::obj-65" : [ "live.gain~", "effect level", 0 ],
			"obj-30::obj-1::obj-67" : [ "live.gain~[1]", "bypass level", 0 ],
			"obj-30::obj-1::obj-75" : [ "live.slider", "effect speed", 0 ],
			"obj-7::obj-1::obj-44" : [ "live.toggle[2]", "live.toggle", 0 ],
			"obj-7::obj-1::obj-60" : [ "live.toggle[3]", "live.toggle", 0 ],
			"obj-7::obj-1::obj-65" : [ "live.gain~[3]", "effect level", 0 ],
			"obj-7::obj-1::obj-67" : [ "live.gain~[2]", "bypass level", 0 ],
			"obj-7::obj-1::obj-75" : [ "live.slider[1]", "effect speed", 0 ],
			"parameterbanks" : 			{

			}
,
			"parameter_overrides" : 			{
				"obj-27::obj-1::obj-44" : 				{
					"parameter_longname" : "live.toggle[4]"
				}
,
				"obj-27::obj-1::obj-60" : 				{
					"parameter_longname" : "live.toggle[5]"
				}
,
				"obj-27::obj-1::obj-65" : 				{
					"parameter_longname" : "live.gain~[4]"
				}
,
				"obj-27::obj-1::obj-67" : 				{
					"parameter_longname" : "live.gain~[5]"
				}
,
				"obj-27::obj-1::obj-75" : 				{
					"parameter_longname" : "live.slider[2]"
				}
,
				"obj-28::obj-3::obj-44" : 				{
					"parameter_longname" : "live.toggle[7]"
				}
,
				"obj-28::obj-3::obj-60" : 				{
					"parameter_longname" : "live.toggle[6]"
				}
,
				"obj-28::obj-3::obj-65" : 				{
					"parameter_longname" : "live.gain~[7]"
				}
,
				"obj-28::obj-3::obj-67" : 				{
					"parameter_longname" : "live.gain~[6]"
				}
,
				"obj-28::obj-3::obj-75" : 				{
					"parameter_longname" : "live.slider[3]"
				}
,
				"obj-29::obj-1::obj-44" : 				{
					"parameter_longname" : "live.toggle[8]"
				}
,
				"obj-29::obj-1::obj-60" : 				{
					"parameter_longname" : "live.toggle[9]"
				}
,
				"obj-29::obj-1::obj-65" : 				{
					"parameter_longname" : "live.gain~[9]"
				}
,
				"obj-29::obj-1::obj-67" : 				{
					"parameter_longname" : "live.gain~[8]"
				}
,
				"obj-29::obj-1::obj-75" : 				{
					"parameter_longname" : "live.slider[4]"
				}
,
				"obj-7::obj-1::obj-44" : 				{
					"parameter_longname" : "live.toggle[2]"
				}
,
				"obj-7::obj-1::obj-60" : 				{
					"parameter_longname" : "live.toggle[3]"
				}
,
				"obj-7::obj-1::obj-65" : 				{
					"parameter_longname" : "live.gain~[3]"
				}
,
				"obj-7::obj-1::obj-67" : 				{
					"parameter_longname" : "live.gain~[2]"
				}
,
				"obj-7::obj-1::obj-75" : 				{
					"parameter_longname" : "live.slider[1]"
				}

			}
,
			"inherited_shortname" : 1
		}
,
		"dependency_cache" : [ 			{
				"name" : "emdm.lazr~.maxpat",
				"bootpath" : "~/Documents/_Max/PD Instruments/emdm.lazr~/emdm.lazr~/patchers",
				"patcherrelativepath" : "../Documents/_Max/PD Instruments/emdm.lazr~/emdm.lazr~/patchers",
				"type" : "JSON",
				"implicit" : 1
			}
, 			{
				"name" : "violin.wav",
				"bootpath" : "~/Documents/Max 8/Packages/Delicious Tutorials/media",
				"patcherrelativepath" : "../Documents/Max 8/Packages/Delicious Tutorials/media",
				"type" : "WAVE",
				"implicit" : 1
			}
, 			{
				"name" : "cherokee.aif",
				"bootpath" : "C74:/media/msp",
				"type" : "AIFF",
				"implicit" : 1
			}
, 			{
				"name" : "ELEPHANT.wav",
				"bootpath" : "~/Documents/Max 8/Packages/BLOCKS/media",
				"patcherrelativepath" : "../Documents/Max 8/Packages/BLOCKS/media",
				"type" : "WAVE",
				"implicit" : 1
			}
, 			{
				"name" : "anton.aif",
				"bootpath" : "C74:/media/msp",
				"type" : "AIFF",
				"implicit" : 1
			}
 ],
		"autosave" : 0,
		"bgcolor" : [ 0.529411764705882, 0.529411764705882, 0.529411764705882, 1.0 ]
	}

}
